<svg height="512pt" viewBox="0 0 512 511" width="512pt" xmlns="http://www.w3.org/2000/svg"><path d="m511.832031 256.417969c0 141.335937-114.578125 255.914062-255.914062 255.914062-141.339844 0-255.917969-114.578125-255.917969-255.914062 0-141.339844 114.578125-255.917969 255.917969-255.917969 141.335937 0 255.914062 114.578125 255.914062 255.917969zm0 0" fill="#ff7045"/><path d="m512 256.417969c0-9.625-.550781-19.117188-1.585938-28.464844l-105.613281-105.394531-66.585937 62.121094-33.398438-32.566407-76.855468 7.570313-42.769532-42.03125-75.042968 69.453125 49.507812 48.480469-41.726562 45.820312 53.054687 52.21875-60.960937 61.957031 116.003906 114.984375c9.859375 1.152344 19.886718 1.765625 30.054687 1.765625 141.339844 0 255.917969-114.578125 255.917969-255.914062zm0 0" fill="#de4726"/><g fill="#555a66"><path d="m232.914062 181.605469 21.203126 21.203125 50.699218-50.695313-50.699218-50.695312-21.203126 21.207031 14.496094 14.492188h-86.007812v29.992187h86.007812zm0 0"/><path d="m280.296875 331.230469-21.207031-21.207031-50.695313 50.695312 50.695313 50.699219 21.207031-21.207031-14.496094-14.496094h86.003907v-29.988282h-86.003907zm0 0"/><path d="m392.570312 233.355469-14.496093 14.492187v-86.003906h-29.992188v86.003906l-14.492187-14.492187-21.207032 21.203125 50.695313 50.699218 50.695313-50.699218zm0 0"/><path d="m96.726562 260.199219 21.203126 21.207031 14.496093-14.496094v86.003906h29.992188v-86.003906l14.496093 14.496094 21.203126-21.207031-50.695313-50.695313zm0 0"/></g><path d="m161.402344 151.949219v15.160156h86.007812l-14.496094 14.496094 21.203126 21.203125 50.699218-50.695313zm0 0" fill="#333940"/><path d="m208.394531 360.71875 50.695313 50.699219 21.207031-21.207031-14.496094-14.496094h86.003907v-15.164063zm0 0" fill="#333940"/><path d="m413.773438 254.558594-21.203126-21.203125-14.496093 14.492187v-86.003906h-15.027344v143.382812l.03125.03125zm0 0" fill="#333940"/><path d="m147.421875 209.503906-.136719 143.410156h15.132813v-86.003906l14.496093 14.496094 21.203126-21.207031zm0 0" fill="#333940"/><path d="m198.546875 360.71875c0 28.238281-22.886719 51.128906-51.125 51.128906-28.234375 0-51.125-22.890625-51.125-51.128906 0-28.234375 22.890625-51.125 51.125-51.125 28.238281 0 51.125 22.890625 51.125 51.125zm0 0" fill="#ffce00"/><path d="m147.421875 309.59375c-.046875 0-.089844.003906-.136719.003906v102.246094c.046875 0 .089844.003906.136719.003906 28.238281 0 51.125-22.890625 51.125-51.128906 0-28.234375-22.886719-51.125-51.125-51.125zm0 0" fill="#ffb600"/><path d="m198.546875 152.113281c0 28.238281-22.886719 51.125-51.125 51.125-28.234375 0-51.125-22.886719-51.125-51.125 0-28.234375 22.890625-51.125 51.125-51.125 28.238281 0 51.125 22.890625 51.125 51.125zm0 0" fill="#80dbff"/><path d="m96.300781 151.949219c0 .054687-.003906.109375-.003906.164062 0 28.238281 22.886719 51.125 51.125 51.125s51.125-22.886719 51.125-51.125c0-.054687-.003906-.109375-.003906-.164062zm0 0" fill="#4ab8f7"/><path d="m414.203125 360.71875c0 28.238281-22.886719 51.128906-51.125 51.128906-28.234375 0-51.125-22.890625-51.125-51.128906 0-28.234375 22.890625-51.125 51.125-51.125 28.238281 0 51.125 22.890625 51.125 51.125zm0 0" fill="#fff"/><path d="m311.957031 360.550781c0 .054688-.003906.113281-.003906.167969 0 28.238281 22.886719 51.128906 51.125 51.128906 28.234375 0 51.125-22.890625 51.125-51.128906 0-.054688-.003906-.113281-.003906-.167969zm0 0" fill="#dce1eb"/><path d="m414.203125 152.113281c0 28.238281-22.886719 51.125-51.125 51.125-28.234375 0-51.125-22.886719-51.125-51.125 0-28.234375 22.890625-51.125 51.125-51.125 28.238281 0 51.125 22.890625 51.125 51.125zm0 0" fill="#95e8c8"/><path d="m363.078125 100.988281c-.007813 0-.019531 0-.03125 0v102.25h.03125c28.234375 0 51.125-22.890625 51.125-51.125 0-28.238281-22.890625-51.125-51.125-51.125zm0 0" fill="#06ccab"/></svg>